<svg width="123" height="35" viewBox="0 0 123 35" fill="none" xmlns="http://www.w3.org/2000/svg">
<path d="M24.3227 24.8054C22.5535 26.3952 20.2177 27.2764 17.6543 27.2764C12.0036 27.2764 7.85383 23.1283 7.85383 17.433C7.85383 11.7377 11.8715 7.76424 17.6543 7.76424C20.173 7.76424 22.5535 8.6028 24.3674 10.1926L25.6003 11.2525L31.0784 5.77851L29.7074 4.542C26.4839 1.63244 22.2042 0 17.6523 0C7.49635 0 0.121094 7.32568 0.121094 17.3904C0.121094 27.4124 7.67306 35 17.6523 35C22.2895 35 26.6139 33.3676 29.7968 30.4113L31.1211 29.1748L25.5577 23.7049L24.3227 24.8054Z" fill="#18313B"/>
<path d="M17.119 12C20.4344 12 23.1211 14.459 23.1211 17.5C23.1211 20.5372 20.4344 23 17.119 23C13.8057 23 11.1211 20.5372 11.1211 17.5C11.1232 14.4609 13.8078 12 17.119 12Z" fill="#FC3F38"/>
<path d="M47.797 2.72499L49.376 5.92449C49.4858 6.14702 49.6981 6.30121 49.9437 6.33684L53.4747 6.84994C54.0932 6.93989 54.3399 7.69976 53.8925 8.13576L51.3376 10.6262C51.16 10.7994 51.0788 11.0491 51.1209 11.2935L51.7239 14.8101C51.8296 15.426 51.1831 15.8956 50.63 15.6051L47.4719 13.9449C47.2523 13.8295 46.9898 13.8295 46.7702 13.9449L43.6122 15.6051C43.059 15.8959 42.4125 15.426 42.5182 14.8101L43.1212 11.2935C43.1633 11.0491 43.0821 10.7994 42.9046 10.6262L40.3496 8.13576C39.9022 7.69946 40.149 6.9396 40.7675 6.84994L44.2984 6.33684C44.544 6.30121 44.7563 6.14702 44.8661 5.92449L46.4452 2.72499C46.7214 2.16459 47.5204 2.16459 47.797 2.72499Z" fill="#FC3F38"/>
<path d="M64.797 2.72499L66.376 5.92449C66.4858 6.14702 66.6981 6.30121 66.9437 6.33684L70.4747 6.84994C71.0932 6.93989 71.3399 7.69976 70.8925 8.13576L68.3376 10.6262C68.16 10.7994 68.0788 11.0491 68.1209 11.2935L68.7239 14.8101C68.8296 15.426 68.1831 15.8956 67.63 15.6051L64.4719 13.9449C64.2523 13.8295 63.9898 13.8295 63.7702 13.9449L60.6122 15.6051C60.059 15.8959 59.4125 15.426 59.5182 14.8101L60.1212 11.2935C60.1633 11.0491 60.0821 10.7994 59.9046 10.6262L57.3496 8.13576C56.9022 7.69946 57.149 6.9396 57.7675 6.84994L61.2984 6.33684C61.544 6.30121 61.7563 6.14702 61.8661 5.92449L63.4452 2.72499C63.7214 2.16459 64.5204 2.16459 64.797 2.72499Z" fill="#FC3F38"/>
<path d="M81.797 2.72499L83.376 5.92449C83.4858 6.14702 83.6981 6.30121 83.9437 6.33684L87.4747 6.84994C88.0932 6.93989 88.3399 7.69976 87.8925 8.13576L85.3376 10.6262C85.16 10.7994 85.0788 11.0491 85.1209 11.2935L85.7239 14.8101C85.8296 15.426 85.1831 15.8956 84.63 15.6051L81.4719 13.9449C81.2523 13.8295 80.9898 13.8295 80.7702 13.9449L77.6122 15.6051C77.059 15.8959 76.4125 15.426 76.5182 14.8101L77.1212 11.2935C77.1633 11.0491 77.0821 10.7994 76.9046 10.6262L74.3496 8.13576C73.9022 7.69946 74.149 6.9396 74.7675 6.84994L78.2984 6.33684C78.544 6.30121 78.7563 6.14702 78.8661 5.92449L80.4452 2.72499C80.7214 2.16459 81.5204 2.16459 81.797 2.72499Z" fill="#FC3F38"/>
<path d="M98.797 2.72499L100.376 5.92449C100.486 6.14702 100.698 6.30121 100.944 6.33684L104.475 6.84994C105.093 6.93989 105.34 7.69976 104.893 8.13576L102.338 10.6262C102.16 10.7994 102.079 11.0491 102.121 11.2935L102.724 14.8101C102.83 15.426 102.183 15.8956 101.63 15.6051L98.4719 13.9449C98.2523 13.8295 97.9898 13.8295 97.7702 13.9449L94.6122 15.6051C94.059 15.8959 93.4125 15.426 93.5182 14.8101L94.1212 11.2935C94.1633 11.0491 94.0821 10.7994 93.9046 10.6262L91.3496 8.13576C90.9022 7.69946 91.149 6.9396 91.7675 6.84994L95.2984 6.33684C95.544 6.30121 95.7563 6.14702 95.8661 5.92449L97.4452 2.72499C97.7214 2.16459 98.5204 2.16459 98.797 2.72499Z" fill="#FC3F38"/>
<path d="M115.797 2.72499L117.376 5.92449C117.486 6.14702 117.698 6.30121 117.944 6.33684L121.475 6.84994C122.093 6.93989 122.34 7.69976 121.893 8.13576L119.338 10.6262C119.16 10.7994 119.079 11.0491 119.121 11.2935L119.724 14.8101C119.83 15.426 119.183 15.8956 118.63 15.6051L115.472 13.9449C115.252 13.8295 114.99 13.8295 114.77 13.9449L111.612 15.6051C111.059 15.8959 110.412 15.426 110.518 14.8101L111.121 11.2935C111.163 11.0491 111.082 10.7994 110.905 10.6262L108.35 8.13576C107.902 7.69946 108.149 6.9396 108.767 6.84994L112.298 6.33684C112.544 6.30121 112.756 6.14702 112.866 5.92449L114.445 2.72499C114.721 2.16459 115.52 2.16459 115.797 2.72499Z" fill="#FC3F38"/>
<path d="M61.959 29.1972H59.9551V32.6484H58.8242V24.1172H61.6484C62.6094 24.1172 63.3477 24.3359 63.8633 24.7734C64.3828 25.2109 64.6426 25.8476 64.6426 26.6836C64.6426 27.2148 64.498 27.6777 64.209 28.0722C63.9238 28.4668 63.5254 28.7617 63.0137 28.957L65.0176 32.5781V32.6484H63.8105L61.959 29.1972ZM59.9551 28.2773H61.6836C62.2422 28.2773 62.6855 28.1328 63.0137 27.8437C63.3457 27.5546 63.5117 27.1679 63.5117 26.6836C63.5117 26.1562 63.3535 25.7519 63.0371 25.4707C62.7246 25.1894 62.2715 25.0468 61.6777 25.0429H59.9551V28.2773ZM71.0469 28.705H67.3496V31.7285H71.6445V32.6484H66.2246V24.1172H71.5859V25.0429H67.3496V27.7851H71.0469V28.705ZM75.8691 31.1543L78.3066 24.1172H79.5371L76.373 32.6484H75.3769L72.2187 24.1172H73.4434L75.8691 31.1543ZM81.8926 32.6484H80.7676V24.1172H81.8926V32.6484ZM88.7773 28.705H85.0801V31.7285H89.375V32.6484H83.9551V24.1172H89.3164V25.0429H85.0801V27.7851H88.7773V28.705ZM92.6152 29.9589L92.7793 31.0839L93.0195 30.0703L94.707 24.1172H95.6562L97.3027 30.0703L97.5371 31.1015L97.7187 29.9531L99.043 24.1172H100.174L98.1055 32.6484H97.0801L95.3223 26.4316L95.1875 25.7812L95.0527 26.4316L93.2305 32.6484H92.2051L90.1426 24.1172H91.2676L92.6152 29.9589ZM103.941 28.8457C102.977 28.5683 102.273 28.2285 101.832 27.8261C101.395 27.4199 101.176 26.9199 101.176 26.3261C101.176 25.6543 101.443 25.0996 101.979 24.6621C102.518 24.2207 103.217 24 104.076 24C104.662 24 105.184 24.1132 105.641 24.3398C106.102 24.5664 106.457 24.8789 106.707 25.2773C106.961 25.6757 107.088 26.1113 107.088 26.5839H105.957C105.957 26.0683 105.793 25.664 105.465 25.3711C105.137 25.0742 104.674 24.9257 104.076 24.9257C103.522 24.9257 103.088 25.0488 102.775 25.2949C102.467 25.5371 102.313 25.875 102.313 26.3086C102.313 26.6562 102.459 26.9511 102.752 27.1933C103.049 27.4316 103.551 27.6504 104.258 27.8496C104.969 28.0488 105.523 28.2695 105.922 28.5117C106.324 28.75 106.621 29.0293 106.813 29.3496C107.008 29.6699 107.106 30.0468 107.106 30.4804C107.106 31.1718 106.836 31.7265 106.297 32.1445C105.758 32.5586 105.037 32.7656 104.135 32.7656C103.549 32.7656 103.002 32.6543 102.494 32.4316C101.986 32.205 101.594 31.8964 101.316 31.5058C101.043 31.1152 100.906 30.6718 100.906 30.1757H102.037C102.037 30.6914 102.227 31.0996 102.606 31.4004C102.988 31.6972 103.498 31.8457 104.135 31.8457C104.729 31.8457 105.184 31.7246 105.5 31.4824C105.816 31.2402 105.975 30.9101 105.975 30.4922C105.975 30.0742 105.828 29.7519 105.535 29.5254C105.242 29.2949 104.711 29.0683 103.941 28.8457Z" fill="#6B797E"/>
<path d="M44.2754 32.6484H43.1855V25.4238L41 26.2266V25.2422L44.1055 24.0762H44.2754V32.6484ZM52.8008 29.0098C52.8008 30.2793 52.584 31.2227 52.1504 31.8398C51.7168 32.457 51.0391 32.7656 50.1172 32.7656C49.207 32.7656 48.5332 32.4648 48.0957 31.8633C47.6582 31.2578 47.4316 30.3555 47.416 29.1562V27.709C47.416 26.4551 47.6328 25.5234 48.0664 24.9141C48.5 24.3047 49.1797 24 50.1055 24C51.0234 24 51.6992 24.2949 52.1328 24.8848C52.5664 25.4707 52.7891 26.377 52.8008 27.6035V29.0098ZM51.7168 27.5273C51.7168 26.6094 51.5879 25.9414 51.3301 25.5234C51.0723 25.1016 50.6641 24.8906 50.1055 24.8906C49.5508 24.8906 49.1465 25.0996 48.8926 25.5176C48.6387 25.9355 48.5078 26.5781 48.5 27.4453V29.1797C48.5 30.1016 48.6328 30.7832 48.8984 31.2246C49.168 31.6621 49.5742 31.8809 50.1172 31.8809C50.6523 31.8809 51.0488 31.6738 51.3066 31.2598C51.5684 30.8457 51.7051 30.1934 51.7168 29.3027V27.5273Z" fill="#6B797E"/>
</svg>
