<svg width="106" height="31" viewBox="0 0 106 31" fill="none" xmlns="http://www.w3.org/2000/svg">
<path d="M32.3461 0H27.5293V30.143H32.3461V0Z" fill="white"/>
<path d="M49.2042 20.5271C49.2042 25.1402 45.3303 25.5079 44.1778 25.5079C41.2986 25.5079 40.7748 22.8095 40.7748 21.1818V9.64551H35.958V21.1577C35.958 24.0153 36.8539 26.3736 38.4242 27.9459C39.8114 29.3361 41.8899 30.0957 44.1417 30.0957C45.7385 30.0957 48 29.5977 49.2042 28.4969V30.1427H54.0209V9.64551H49.2042V20.5271Z" fill="white"/>
<path d="M63.655 2.41113H58.8382V9.64545H55.2256V14.4683H58.8382V30.1427H63.655V14.4683H67.2675V9.64545H63.655V2.41113Z" fill="white"/>
<path d="M82.4359 24.0144C81.387 24.9585 80.0022 25.4818 78.4825 25.4818C75.1324 25.4818 72.6723 23.0185 72.6723 19.6365C72.6723 16.2544 75.0542 13.8948 78.4825 13.8948C79.9757 13.8948 81.387 14.3928 82.4624 15.3369L83.1933 15.9663L86.441 12.7157L85.6282 11.9814C83.7171 10.2536 81.1799 9.28418 78.4813 9.28418C72.4603 9.28418 68.0879 13.6344 68.0879 19.6112C68.0879 25.5626 72.5651 30.0684 78.4813 30.0684C81.2305 30.0684 83.7942 29.099 85.6812 27.3434L86.4663 26.6092L83.168 23.3609L82.4359 24.0144Z" fill="white"/>
<path d="M103.635 11.4326C102.247 10.0436 100.622 9.28403 98.3698 9.28403C96.773 9.28403 94.9643 9.782 93.7601 10.8816V0H88.9434V30.143H93.7601V18.8514C93.7601 14.2383 97.0331 13.8718 98.1856 13.8718C101.065 13.8718 100.985 16.5714 100.985 18.1967V30.143H105.802V18.222C105.802 15.3645 105.206 13.0061 103.635 11.4326Z" fill="white"/>
<path d="M78.3261 16.2031C80.2504 16.2031 81.8098 17.7621 81.8098 19.6901C81.8098 21.6156 80.2504 23.177 78.3261 23.177C76.403 23.177 74.8447 21.6156 74.8447 19.6901C74.8459 17.7633 76.4042 16.2031 78.3261 16.2031Z" fill="white"/>
<path d="M20.7856 22.5749C18.954 24.4619 16.4662 25.4843 13.8482 25.4843C8.48235 25.4843 4.58076 21.2643 4.58076 15.472C4.58076 9.65325 8.48235 5.43323 13.8482 5.43323C16.4409 5.43323 18.9011 6.45448 20.7603 8.31611L21.4925 9.05039L24.7125 5.8263L24.0056 5.09202C21.3359 2.33936 17.7233 0.84668 13.8482 0.84668C5.9427 0.84668 0 7.13691 0 15.4974C0 23.8325 5.9692 30.0974 13.8482 30.0974C17.7498 30.0974 21.3624 28.5782 24.0321 25.8256L24.739 25.0913L21.5455 21.8153L20.7856 22.5749Z" fill="white"/>
</svg>
