<svg width="127" height="36" viewBox="0 0 127 36" fill="none" xmlns="http://www.w3.org/2000/svg">
<path d="M76.909 8.06445C71.6738 8.06445 67.3904 12.3493 67.3904 17.7053C67.3904 23.0613 71.6738 27.3462 76.909 27.3462C82.1443 27.3462 86.4277 23.0613 86.4277 17.7053C86.4277 12.3493 82.1443 8.06445 76.909 8.06445ZM76.909 23.4184C73.8155 23.4184 71.3168 20.9189 71.3168 17.8243C71.3168 14.7297 73.8155 12.2303 76.909 12.2303C80.0026 12.2303 82.5012 14.7297 82.5012 17.8243C82.5012 20.7999 79.8836 23.4184 76.909 23.4184ZM98.0881 12.7063C95.3515 12.7063 93.2097 14.9678 93.2097 17.7053V26.8701H89.0453V8.65957H93.2097V11.5161C93.2097 11.5161 94.9945 8.65957 98.564 8.65957H99.7538V12.7063H98.0881ZM56.5629 8.65957L59.6564 21.157L62.988 8.65957H67.1524L61.9171 26.8701H57.8717L54.6591 14.1346L51.4466 26.8701H47.4011L42.0469 8.65957H46.0923L49.6618 21.157L52.6364 8.65957H56.5629Z" fill="white"/>
<path d="M112.081 17.1393C114.937 15.473 116.96 12.3784 116.96 8.80768H112.795C112.795 11.9023 110.296 14.4018 107.322 14.4018H106.727V0H102.562V27.0182H106.727V18.4485H107.203C107.679 18.4485 108.155 18.6866 108.274 19.0436L114.104 27.0182H118.982L112.081 17.1393Z" fill="white"/>
<path d="M32.6015 8.21418C28.0801 8.21418 24.6296 11.1898 23.3207 15.9507C21.179 12.618 19.5133 8.80932 18.5614 5.5957H13.8021V18.2121C13.8021 20.7116 11.7794 22.735 9.28071 22.735C6.78206 22.735 4.75934 20.7116 4.75934 18.2121V5.5957H0V18.2121C0 23.4491 4.16442 27.6149 9.28071 27.6149C14.397 27.6149 18.5614 23.4491 18.5614 18.2121V16.0697C19.5133 17.9741 20.7031 19.9974 22.0119 21.7828L19.0373 35.7085H23.9157L26.0574 25.5915C27.9611 26.7817 30.1028 27.4959 32.6015 27.4959C37.8367 27.4959 42.1201 23.2111 42.1201 17.736C42.1201 12.499 37.8367 8.21418 32.6015 8.21418ZM32.6015 22.6159C30.6977 22.6159 28.794 21.7828 27.2472 20.4736L27.7231 18.5692V18.4501C28.0801 16.4268 29.1509 12.9751 32.7204 12.9751C35.3381 12.9751 37.4798 15.1175 37.4798 17.736C37.3608 20.4735 35.1001 22.6159 32.6015 22.6159Z" fill="#7AE57F"/>
<path d="M119.578 9.40187H118.27V8.92578H121.482V9.40187H120.173V13.0916H119.697V9.40187H119.578ZM122.315 8.92578H122.791L124.219 11.1872L125.646 8.92578H126.122V12.9725H125.646V9.63993L124.219 11.7823L122.791 9.63993V12.9725H122.315V8.92578Z" fill="white"/>
</svg>
