<svg width="187" height="28" viewBox="0 0 187 28" fill="none" xmlns="http://www.w3.org/2000/svg">
<path d="M11.6274 9.75021C11.6274 9.75021 10.088 9.59706 10.088 10.9688V17.0619H20.2541V18.8905C20.2541 18.8905 20.2844 19.8041 19.3299 19.8041H10.088V27.7257H21.1783C21.1783 27.7257 27.8932 26.6893 27.9552 19.8041V9.75021H11.6274ZM27.6463 0H7.62302C0.382643 1.70579 0.229492 7.64702 0.229492 7.64702V27.7257H7.93196V9.44523C7.93196 7.89127 9.4714 7.61797 9.4714 7.61797H27.6476V0H27.6463ZM54.0808 21.9799C53.5527 22.3324 53.1619 22.5912 52.8859 22.7562C51.8984 23.3675 50.957 23.8388 50.0843 24.2151C48.8208 24.7327 47.6946 24.9914 46.6846 24.9914C43.2162 24.9914 40.3447 23.9326 38.0236 21.7911C35.7026 19.6496 34.5566 16.9681 34.5566 13.7216C34.5566 10.5925 35.5904 7.88599 37.6803 5.57947C39.7703 3.27428 42.2973 2.14412 45.2838 2.14412C46.5248 2.14412 47.8557 2.35537 49.2341 2.80426C51.0257 3.36801 52.4727 4.21563 53.6213 5.3207L51.6224 7.53215C50.7735 6.70962 49.6711 6.09702 48.3838 5.72074C47.42 5.4382 46.3638 5.29825 45.1914 5.29825C43.1014 5.29825 41.3322 6.14323 39.9314 7.81469C38.5306 9.5086 37.819 11.5088 37.819 13.8615C37.819 16.1918 38.6217 18.097 40.2298 19.6272C41.8379 21.156 43.8817 21.9324 46.3625 21.9324C47.3962 21.9324 48.4538 21.6023 49.5324 20.9686C50.4289 20.286 50.8884 19.9559 50.9108 19.9322V15.1092H44.2038L45.1676 12.0977H54.0808V21.9799ZM74.3404 16.0968C74.3404 18.4257 73.5139 20.4497 71.8596 22.1436C70.2053 23.8375 68.1615 24.7089 65.7269 24.7089C63.4758 24.7089 61.5007 23.8613 59.8002 22.1911C58.0997 20.521 57.2732 18.497 57.2732 16.1205C57.2732 13.7678 58.0786 11.7438 59.6853 10.0024C61.2921 8.26094 63.2685 7.41465 65.5883 7.41465C68.1615 7.41465 70.2515 8.2385 71.882 9.90864C73.5139 11.5326 74.3404 13.6028 74.3404 16.0968ZM71.1928 16.1443C71.1928 14.5679 70.6647 13.2265 69.6085 12.1439C68.5523 11.0375 67.2426 10.4962 65.6807 10.4962C64.2112 10.4962 62.9702 11.0612 61.9364 12.1914C60.9026 13.3202 60.3969 14.6141 60.3969 16.073C60.3969 17.6032 60.9251 18.8971 61.9588 19.9797C62.9926 21.0623 64.2799 21.6261 65.8404 21.6261C67.2888 21.6261 68.5285 21.0847 69.5861 20.0021C70.6647 18.9195 71.1941 17.6256 71.1941 16.1443H71.1928ZM94.324 16.0968C94.324 18.4257 93.4975 20.4497 91.8432 22.1436C90.1889 23.8375 88.1451 24.7089 85.7105 24.7089C83.4595 24.7089 81.4843 23.8613 79.7838 22.1911C78.0846 20.521 77.2568 18.497 77.2568 16.1205C77.2568 13.7678 78.0622 11.7438 79.669 10.0024C81.2771 8.26094 83.2522 7.41465 85.5719 7.41465C88.1451 7.41465 90.2351 8.2385 91.8656 9.90864C93.4975 11.5326 94.324 13.6028 94.324 16.0968ZM91.1765 16.1443C91.1765 14.5679 90.6484 13.2265 89.5921 12.1439C88.5359 11.0375 87.2262 10.4962 85.6643 10.4962C84.1949 10.4962 82.9538 11.0612 81.92 12.1914C80.8863 13.3202 80.3806 14.6141 80.3806 16.073C80.3806 17.6032 80.9087 18.8971 81.9438 19.9797C82.9762 21.0623 84.2635 21.6261 85.8254 21.6261C87.2724 21.6261 88.5122 21.0847 89.5697 20.0021C90.6484 18.9195 91.1778 17.6256 91.1778 16.1443H91.1765ZM112.816 24.2376L109.922 24.6851V21.8848L109.301 22.5899C108.755 23.1019 108.135 23.5304 107.463 23.8613C106.477 24.3162 105.403 24.5492 104.317 24.5439C102.066 24.5439 100.136 23.72 98.574 22.0485C97.0121 20.3771 96.2318 18.402 96.2318 16.0968C96.2318 13.7203 97.0121 11.6738 98.5515 9.97862C100.091 8.28339 101.974 7.43709 104.225 7.43709C105.512 7.43709 106.637 7.64834 107.578 8.07214C108.245 8.37845 108.819 8.77849 109.301 9.27359C109.462 9.48484 109.623 9.71984 109.784 9.93109V2.59037L112.861 2.1428L112.816 24.2376ZM110.105 16.308C110.105 14.6616 109.553 13.2727 108.428 12.1439C107.304 10.9899 106.039 10.4262 104.593 10.4262C102.985 10.4262 101.699 10.9675 100.711 12.0501C99.7913 13.0839 99.3093 14.3553 99.3093 15.838C99.3093 17.5081 99.7912 18.8957 100.756 19.9784C101.72 21.061 102.939 21.6023 104.432 21.6023C105.901 21.6023 107.189 21.1085 108.337 20.0972C109.508 19.0608 110.107 17.7907 110.107 16.308H110.105ZM129.055 5.65077H120.442V11.5088H127.125V14.5204H120.442V24.2151L117.088 24.7089V2.61414H128.388L129.055 5.65077ZM135.969 3.93177L133.902 6.54327L131.927 3.93177L134.017 1.34404L135.969 3.93177ZM135.349 24.2376L132.271 24.6614V8.30847L135.349 7.83846V24.2389V24.2376ZM149.246 7.67342L147.799 11.0137C147.609 10.9847 147.417 10.9693 147.225 10.9675C146.926 10.9675 146.628 10.9913 146.328 11.0375C146.029 11.0837 145.708 11.2025 145.364 11.3675C144.721 11.6501 144.17 12.2614 143.688 13.179C143.154 14.2204 142.878 15.3743 142.882 16.5443V24.2151L139.806 24.7089V8.30847L142.654 7.79093V11.2025C143.021 10.6137 143.412 10.0261 143.779 9.41486C144.307 8.80226 144.927 8.356 145.617 8.09591C145.984 7.95596 146.65 7.83714 147.66 7.7434C148.625 7.67342 149.177 7.62589 149.246 7.67342ZM172.169 24.2376L169.091 24.6851V13.4615C169.091 12.4251 168.861 11.6725 168.402 11.2025C167.942 10.7312 167.253 10.4962 166.357 10.4962C165.278 10.4962 164.45 10.9437 163.9 11.8376C163.531 12.4488 163.325 13.1077 163.325 13.7665V24.2138L160.248 24.7789V13.5315C160.248 12.5439 160.018 11.79 159.581 11.2738C159.122 10.7549 158.525 10.4962 157.743 10.4962H157.445C156.365 10.4962 155.583 10.9437 155.101 11.8613C154.734 12.5439 154.551 13.414 154.551 14.4728V24.2138L151.358 24.7789V8.30847L154.229 7.81469V9.90864C154.551 9.41354 154.872 9.0135 155.171 8.73228C155.998 7.95596 156.963 7.57836 158.042 7.57836C159.259 7.57836 160.154 7.76716 160.775 8.1672C161.303 8.49727 161.808 9.15477 162.314 10.0961C163.37 8.42598 164.864 7.57836 166.84 7.57836C168.723 7.57836 170.125 8.1672 171.042 9.36733C171.802 10.3549 172.169 11.8138 172.169 13.7203V24.2376ZM186.229 19.2733C186.229 20.7784 185.701 22.0261 184.645 22.9912C183.589 23.9788 182.255 24.4501 180.647 24.4501C179.43 24.4501 178.35 24.1676 177.363 23.6025C176.375 23.0388 175.641 22.4024 175.158 21.6498L177.318 19.7209C177.477 19.9559 177.616 20.1434 177.753 20.2847C178.559 21.1085 179.522 21.5323 180.647 21.5323C181.429 21.5323 182.05 21.3211 182.485 20.921C182.945 20.521 183.152 19.9559 183.152 19.2258C183.152 18.4033 182.624 17.8382 181.568 17.5319C179.476 16.8968 178.35 16.5443 178.19 16.473C177.225 15.9793 176.536 15.4617 176.099 14.8729C175.617 14.1903 175.365 13.2965 175.365 12.1439C175.365 10.7312 175.893 9.55613 176.927 8.61478C177.961 7.67342 179.2 7.22585 180.624 7.22585C181.705 7.22585 182.715 7.46086 183.634 7.95596C184.553 8.44974 185.218 8.96729 185.609 9.5799L183.771 11.5788C183.495 11.3025 183.196 11.0507 182.876 10.8262C182.141 10.3087 181.429 10.0499 180.764 10.0499C180.119 10.0499 179.591 10.1912 179.178 10.4724C178.695 10.8262 178.443 11.3438 178.443 12.0264C178.443 12.6852 178.672 13.179 179.155 13.4853C179.569 13.744 180.441 14.0266 181.82 14.3316C183.197 14.6616 184.254 15.2267 185.012 16.0268C185.862 16.8731 186.229 17.9319 186.229 19.2733Z" fill="#4388EF"/>
</svg>
