<svg width="23" height="18" viewBox="0 0 23 18" fill="none" xmlns="http://www.w3.org/2000/svg">
<path d="M20.9785 0H2.02148C1.71031 0 1.41899 0.0765021 1.15544 0.202598L11.4551 10.5022L13.7636 8.28368C13.7636 8.28368 13.7637 8.28346 13.7638 8.28337C13.7638 8.28328 13.764 8.28319 13.764 8.28319L21.8449 0.202777C21.5813 0.0765918 21.2898 0 20.9785 0Z" fill="white"/>
<path d="M22.7977 1.15575L15.1932 8.75986L22.7974 16.3641C22.9235 16.1005 23 15.8092 23 15.498V2.02149C23 1.71049 22.9237 1.41922 22.7977 1.15575Z" fill="white"/>
<path d="M0.202598 1.15544C0.076502 1.419 0 1.71032 0 2.02149V15.4981C0 15.8091 0.0764121 16.1004 0.202418 16.3639L7.80693 8.75977L0.202598 1.15544Z" fill="white"/>
<path d="M14.2403 9.71269L11.9315 11.9315C11.7999 12.0631 11.6275 12.129 11.4551 12.129C11.2828 12.129 11.1103 12.0631 10.9787 11.9315L8.75976 9.7126L1.15512 17.3168C1.41872 17.4429 1.71022 17.5195 2.02148 17.5195H20.9785C21.2897 17.5195 21.581 17.443 21.8446 17.3169L14.2403 9.71269Z" fill="white"/>
</svg>
