<svg width="23" height="19" viewBox="0 0 23 19" fill="none" xmlns="http://www.w3.org/2000/svg">
<path d="M23 2.21231C22.1447 2.5875 21.2333 2.83619 20.2831 2.95694C21.2606 2.37331 22.0067 1.45619 22.3574 0.35075C21.4461 0.894125 20.4398 1.27794 19.3674 1.49213C18.5021 0.570688 17.2687 0 15.9232 0C13.3127 0 11.2111 2.11888 11.2111 4.71644C11.2111 5.09019 11.2427 5.44956 11.3203 5.79169C7.40025 5.6005 3.93156 3.72169 1.60137 0.859625C1.19456 1.56544 0.955938 2.37331 0.955938 3.243C0.955938 4.876 1.79688 6.32356 3.05037 7.16162C2.29281 7.14725 1.54962 6.92731 0.92 6.58087C0.92 6.59525 0.92 6.61394 0.92 6.63262C0.92 8.924 2.55444 10.8272 4.69775 11.2657C4.31394 11.3706 3.89562 11.4209 3.4615 11.4209C3.15963 11.4209 2.85487 11.4037 2.56881 11.3404C3.17975 13.2078 4.91338 14.5806 6.97475 14.6251C5.3705 15.8801 3.33356 16.6362 1.12844 16.6362C0.74175 16.6362 0.370875 16.6189 0 16.5715C2.08869 17.9184 4.56406 18.6875 7.2335 18.6875C15.9102 18.6875 20.654 11.5 20.654 5.26988C20.654 5.06144 20.6468 4.86019 20.6367 4.66038C21.5726 3.99625 22.3589 3.16681 23 2.21231Z" fill="white"/>
</svg>
