<svg width="13" height="22" viewBox="0 0 13 22" fill="none" xmlns="http://www.w3.org/2000/svg">
<path d="M11.5826 0.719132L8.90996 0.714844C5.90731 0.714844 3.96687 2.70567 3.96687 5.78701V8.12562H1.27963C1.04742 8.12562 0.859375 8.31387 0.859375 8.54608V11.9345C0.859375 12.1667 1.04763 12.3547 1.27963 12.3547H3.96687V20.9047C3.96687 21.1369 4.15491 21.3249 4.38712 21.3249H7.89321C8.12542 21.3249 8.31346 21.1367 8.31346 20.9047V12.3547H11.4555C11.6877 12.3547 11.8757 12.1667 11.8757 11.9345L11.877 8.54608C11.877 8.43459 11.8326 8.32781 11.7539 8.24891C11.6753 8.17 11.568 8.12562 11.4566 8.12562H8.31346V6.14315C8.31346 5.1903 8.54053 4.70658 9.78177 4.70658L11.5822 4.70594C11.8142 4.70594 12.0022 4.51768 12.0022 4.28569V1.13938C12.0022 0.907602 11.8144 0.719561 11.5826 0.719132Z" fill="#646464"/>
</svg>
