<svg width="19" height="19" viewBox="0 0 19 19" fill="none" xmlns="http://www.w3.org/2000/svg">
<path d="M4.42123 6.27734H0.375V18.4282H4.42123V6.27734Z" fill="#646464"/>
<path d="M17.7001 7.3879C16.8501 6.46009 15.7259 5.99609 14.3283 5.99609C13.8133 5.99609 13.3452 6.05944 12.9241 6.18622C12.5032 6.31291 12.1477 6.49066 11.8574 6.71957C11.5673 6.94847 11.3363 7.16097 11.1648 7.35706C11.0016 7.54332 10.8421 7.76028 10.6865 8.00572V6.27791H6.65234L6.66471 6.86653C6.673 7.25901 6.67708 8.46872 6.67708 10.4958C6.67708 12.5231 6.66892 15.1674 6.65252 18.429H10.6865V11.6483C10.6865 11.2315 10.7312 10.9005 10.8213 10.6551C10.9931 10.238 11.2524 9.88879 11.6 9.60689C11.9475 9.32464 12.3786 9.18365 12.8937 9.18365C13.5965 9.18365 14.1137 9.42681 14.4448 9.91318C14.7758 10.3995 14.9413 11.0719 14.9413 11.9302V18.4286H18.9753V11.4646C18.975 9.67423 18.5503 8.31541 17.7001 7.3879Z" fill="#646464"/>
<path d="M2.4212 0.429688C1.74282 0.429688 1.19315 0.628056 0.772064 1.02441C0.351019 1.42084 0.140625 1.92134 0.140625 2.52637C0.140625 3.12293 0.344963 3.62171 0.753683 4.02214C1.16227 4.42262 1.70185 4.62296 2.37211 4.62296H2.39664C3.08335 4.62296 3.63722 4.42279 4.05814 4.02214C4.47906 3.62171 4.68541 3.12311 4.6773 2.52637C4.66914 1.92138 4.46055 1.42084 4.05196 1.02441C3.64341 0.627885 3.09962 0.429688 2.4212 0.429688Z" fill="#646464"/>
</svg>
