<svg width="24" height="19" viewBox="0 0 24 19" fill="none" xmlns="http://www.w3.org/2000/svg">
<path d="M21.2962 2.54516L23.1429 0.809582V0.429688H16.7458L12.1866 11.5783L6.99975 0.429688H0.292179V0.809582L2.44929 3.36085C2.6595 3.54937 2.76943 3.82506 2.74146 4.10263V14.1286C2.808 14.4896 2.68843 14.861 2.43 15.1234L0 18.0166V18.3918H6.88982V18.0119L4.45982 15.1234C4.19657 14.86 4.07218 14.4953 4.12521 14.1286V5.45642L10.1732 18.3965H10.8762L16.0766 5.45642V15.7647C16.0766 16.0366 16.0766 16.0925 15.8953 16.2706L14.0246 18.0488V18.4297H23.1004V18.0498L21.2972 16.3152C21.1391 16.1977 21.0571 16.0006 21.0909 15.8093V3.05106C21.0571 2.85874 21.1381 2.66169 21.2962 2.54516Z" fill="#646464"/>
</svg>
