<svg width="24" height="24" viewBox="0 0 24 24" fill="none" xmlns="http://www.w3.org/2000/svg">
<path d="M16.1808 0.857422H7.82366C3.97798 0.857422 0.859375 3.97603 0.859375 7.82171V16.1789C0.859375 20.0245 3.97798 23.1431 7.82366 23.1431H16.1808C20.0265 23.1431 23.1451 20.0245 23.1451 16.1789V7.82171C23.1451 3.97603 20.0265 0.857422 16.1808 0.857422ZM21.0558 16.1789C21.0558 18.8671 18.869 21.0539 16.1808 21.0539H7.82366C5.13545 21.0539 2.94866 18.8671 2.94866 16.1789V7.82171C2.94866 5.13349 5.13545 2.94671 7.82366 2.94671H16.1808C18.869 2.94671 21.0558 5.13349 21.0558 7.82171V16.1789Z" fill="#646464"/>
<path d="M12.0011 6.42969C8.92429 6.42969 6.42969 8.92429 6.42969 12.0011C6.42969 15.0779 8.92429 17.5725 12.0011 17.5725C15.0779 17.5725 17.5725 15.0779 17.5725 12.0011C17.5725 8.92429 15.0779 6.42969 12.0011 6.42969ZM12.0011 15.4833C10.0818 15.4833 8.51897 13.9205 8.51897 12.0011C8.51897 10.0804 10.0818 8.51897 12.0011 8.51897C13.9205 8.51897 15.4833 10.0804 15.4833 12.0011C15.4833 13.9205 13.9205 15.4833 12.0011 15.4833Z" fill="#646464"/>
<path d="M17.9924 6.75432C18.4024 6.75432 18.7348 6.42194 18.7348 6.01192C18.7348 5.60191 18.4024 5.26953 17.9924 5.26953C17.5824 5.26953 17.25 5.60191 17.25 6.01192C17.25 6.42194 17.5824 6.75432 17.9924 6.75432Z" fill="#646464"/>
</svg>
