<svg width="28" height="18" viewBox="0 0 28 18" fill="none" xmlns="http://www.w3.org/2000/svg">
<path d="M14.5494 11.9981C14.5494 9.95169 13.576 8.43906 11.5651 7.87211C13.0323 7.17338 13.7975 6.11476 13.7975 4.46815C13.7975 1.22143 11.3702 0.429688 8.56977 0.429688H0.859375V16.7308H8.7857C11.7578 16.7308 14.5494 15.3101 14.5494 11.9981ZM4.45379 3.21243H7.82675C9.12344 3.21243 10.2906 3.57564 10.2906 5.07497C10.2906 6.45914 9.38256 7.01614 8.09804 7.01614H4.45379V3.21243ZM4.45269 13.9625V9.47332H8.37045C9.95284 9.47332 10.9539 10.1311 10.9539 11.8009C10.9539 13.4476 9.75905 13.9625 8.29626 13.9625H4.45269Z" fill="#646464"/>
<path d="M21.6726 17.04C24.5008 17.04 26.3323 15.7699 27.2138 13.0702H24.3435C24.0346 14.0778 22.7611 14.6105 21.7734 14.6105C19.8677 14.6105 18.8666 13.4976 18.8666 11.6063H27.4075C27.6777 7.82138 25.5694 4.5957 21.6715 4.5957C18.0627 4.5957 15.6133 7.29982 15.6133 10.8422C15.6133 14.5186 17.9343 17.04 21.6726 17.04ZM21.5708 7.04513C23.2041 7.04513 24.0257 8.00188 24.163 9.56654H18.8711C18.9785 8.01516 20.0116 7.04513 21.5708 7.04513Z" fill="#646464"/>
<path d="M18.207 1.28516H24.8378V2.8908H18.207V1.28516Z" fill="#646464"/>
</svg>
